# xmcd
#
# Track frame offsets:
#	150
#	22756
#	45776
#	68736
#	91342
#	118484
#	140140
#	159108
#	184585
#	201894
#	226791
#	247607
#	270835
#	287060
#
# Disc length: 4200
#
# Revision: 1
# Processed by: cddbd v1.5.1PL0 Copyright (c) Steve Scherf et al.
# Submitted via: CDex 1.50
# Normalized: r0:DSETVAR1,TDELIM( - )
#
DISCID=aa10660e
DTITLE=Various Artist - Soft Jazz Planet - The Best Of Soft Jazz Music
DYEAR=2000
DGENRE=Jazz
TTITLE0=Oleg Kireyev - Love
TTITLE1=King B. - Savitar Boogi
TTITLE2=Grover Washington, Jr. - Take Five
TTITLE3=Oleg Kireyev - Love
TTITLE4=George Benson - Lady
TTITLE5=Larry Carlton - After The Rain
TTITLE6=George Duke - Thinking Of You
TTITLE7=Michael Brecker - Never Alon
TTITLE8=Mezzoforte - In The World
TTITLE9=Bob James and Earl Klugh - I'll Never See You Smile Again
TTITLE10=Stanley Clarke - Lisa
TTITLE11=Dave Grusin - Night Lines
TTITLE12=Vince Andrews - You're Not Alone
TTITLE13=Wayne Shorter - Mahogany Bird
EXTD=YEAR: 2000
EXTT0=
EXTT1=
EXTT2=
EXTT3=
EXTT4=
EXTT5=
EXTT6=
EXTT7=
EXTT8=
EXTT9=
EXTT10=
EXTT11=
EXTT12=
EXTT13=
PLAYORDER=
